# xmcd
#
# Track frame offsets:
#	150
#	16395
#	31379
#	45554
#	63730
#	78184
#	102739
#	117521
#	135057
#	157094
#	179469
#	196674
#	216879
#	232642
#	247002
#	255666
#	271010
#	280456
#	294529
#	314185
#
# Disc length: 4471 seconds
#
# Revision: 1
# Processed by: cddbd v1.5.2PL0 Copyright (c) Steve Scherf et al.
# Submitted via: EZCDAudioConverter 1.3.4.1
#
DISCID=24117514
DTITLE=Lou Rawls - Groovy People -The Best Of Lou Rawls
DYEAR=2005
DGENRE=Soul
TTITLE0=You'll Never Find Another Love Like Mine
TTITLE1=Groovy People
TTITLE2=See You When I Git There
TTITLE3=Lady Love
TTITLE4=One Life To Live
TTITLE5=Let Me Be Good To You
TTITLE6=Sit Down and Talk To Me
TTITLE7=I Go Crazy
TTITLE8=I Wish You Belonged To Me
TTITLE9=From Now On
TTITLE10=Trade Winds
TTITLE11=Bark, Bite (Fight All Night)
TTITLE12=I Wish It Were Yesterday
TTITLE13=Dollar Green
TTITLE14=Love Is A Hurtin' Thing (Live)
TTITLE15=Dead End Street (Live)
TTITLE16=Tobacco Road (Live)
TTITLE17=This Song Will Last Forever
TTITLE18=There Will Be Love
TTITLE19=Ain't That Lovng You (For More Reasons Than One)
EXTD=
EXTT0=
EXTT1=
EXTT2=
EXTT3=
EXTT4=
EXTT5=
EXTT6=
EXTT7=
EXTT8=
EXTT9=
EXTT10=
EXTT11=
EXTT12=
EXTT13=
EXTT14=
EXTT15=
EXTT16=
EXTT17=
EXTT18=
EXTT19=
PLAYORDER=
